<svg version="1.1" viewBox="0.0 0.0 960.0 960.0" fill="none" stroke="none" stroke-linecap="square" stroke-miterlimit="10" xmlns:xlink="http://www.w3.org/1999/xlink" xmlns="http://www.w3.org/2000/svg"><clipPath id="p.0"><path d="m0 0l960.0 0l0 960.0l-960.0 0l0 -960.0z" clip-rule="nonzero"/></clipPath><g clip-path="url(#p.0)"><path fill="#004d99" d="m0 0l960.0 0l0 960.0l-960.0 0z" fill-rule="evenodd"/><path fill="#ffffff" d="m-233.09103 259.4486c0 -10.54184 8.545853 -19.087692 19.087692 -19.087692l91.628716 0c5.0623703 0 9.917397 2.0110168 13.497032 5.5906525c3.5796432 3.5796356 5.59066 8.434677 5.59066 13.49704l0 338.92957c0 10.541809 -8.545853 19.087708 -19.087692 19.087708l-91.628716 0c-10.54184 0 -19.087692 -8.545898 -19.087692 -19.087708z" fill-rule="evenodd"/><path fill="#ffffff" d="m-224.18202 463.23334l111.98608 0l0 190.58765l-55.993034 47.646973l-55.993042 -47.646973z" fill-rule="evenodd"/><path stroke="#ffffff" stroke-width="18.31496062992126" stroke-linejoin="round" stroke-linecap="butt" d="m-224.18202 463.23334l111.98608 0l0 190.58765l-55.993034 47.646973l-55.993042 -47.646973z" fill-rule="evenodd"/><path fill="#ffffff" d="m-619.755 260.06863c0 -10.884277 8.823486 -19.707718 19.707703 -19.707718l309.51724 0c5.2268066 0 10.239532 2.0763397 13.935455 5.7722626c3.6958923 3.6959076 5.7722473 8.708649 5.7722473 13.935455l0 429.22543c0 10.884277 -8.823456 19.707703 -19.707703 19.707703l-309.51724 0c-10.884216 0 -19.707703 -8.823425 -19.707703 -19.707703z" fill-rule="evenodd"/><path fill="#333333" d="m-486.43738 277.16678l179.10562 0l0 397.6332l-179.10562 0z" fill-rule="evenodd"/><path fill="#38761d" d="m-584.3593 277.16678l60.815613 0l0 397.6332l-60.815613 0z" fill-rule="evenodd"/><path fill="#e06666" d="m-198.87323 277.938l59.469513 0l0 35.67209l-59.469513 0z" fill-rule="evenodd"/><path fill="#b7b7b7" d="m-198.87323 313.61008l59.469513 0l0 35.67209l-59.469513 0z" fill-rule="evenodd"/><path fill="#f1c232" d="m-198.87323 521.6712l59.469513 0l0 116.01764l-29.734756 29.004395l-29.734756 -29.004395z" fill-rule="evenodd"/><path fill="#f1c232" d="m-198.87323 349.28217l59.469513 0l0 175.40381l-59.469513 0z" fill-rule="evenodd"/><path fill="#333333" d="m-523.5437 277.1688l37.11435 0l0 397.6332l-37.11435 0z" fill-rule="evenodd"/><path fill="#000000" fill-opacity="0.0" d="m623.45654 664.8627l58.572388 49.471313l58.079712 -49.36389l0 -419.06055l-116.77368 0z" fill-rule="evenodd"/><path stroke="#ffffff" stroke-width="25.328083989501312" stroke-linejoin="round" stroke-linecap="butt" d="m623.45654 664.8627l58.572388 49.471313l58.079712 -49.36389l0 -419.06055l-116.77368 0z" fill-rule="evenodd"/><path fill="#000000" fill-opacity="0.0" d="m638.4249 653.9534l43.52527 46.55011l43.15912 -46.449097l0 -394.31573l-86.77472 0z" fill-rule="evenodd"/><path stroke="#ffffff" stroke-width="25.328083989501312" stroke-linejoin="round" stroke-linecap="butt" d="m638.4249 653.9534l43.52527 46.55011l43.15912 -46.449097l0 -394.31573l-86.77472 0z" fill-rule="evenodd"/><path fill="#000000" fill-opacity="0.0" d="m648.7264 322.10513l65.98718 0" fill-rule="evenodd"/><path stroke="#ffffff" stroke-width="25.328083989501312" stroke-linejoin="round" stroke-linecap="butt" d="m648.7264 322.10513l65.98718 0" fill-rule="evenodd"/><path fill="#000000" fill-opacity="0.0" d="m648.7264 335.30865l65.98718 0" fill-rule="evenodd"/><path stroke="#ffffff" stroke-width="25.328083989501312" stroke-linejoin="round" stroke-linecap="butt" d="m648.7264 335.30865l65.98718 0" fill-rule="evenodd"/><path fill="#000000" fill-opacity="0.0" d="m323.79825 245.66603l-103.906876 0l0 468.43365l341.69086 0l0 -468.21368z" fill-rule="evenodd"/><path stroke="#ffffff" stroke-width="25.328083989501312" stroke-linejoin="round" stroke-linecap="butt" d="m323.79825 245.66603l-103.906876 0l0 468.43365l341.69086 0l0 -468.21368z" fill-rule="evenodd"/><path fill="#000000" fill-opacity="0.0" d="m320.4053 250.76433l0 455.1355" fill-rule="evenodd"/><path stroke="#ffffff" stroke-width="25.328083989501312" stroke-linejoin="round" stroke-linecap="butt" d="m320.4053 250.76433l0 455.1355" fill-rule="evenodd"/><path fill="#000000" fill-opacity="0.0" d="m334.28784 250.76433l0 455.1355" fill-rule="evenodd"/><path stroke="#ffffff" stroke-width="25.328083989501312" stroke-linejoin="round" stroke-linecap="butt" d="m334.28784 250.76433l0 455.1355" fill-rule="evenodd"/><path fill="#000000" fill-opacity="0.0" d="m328.98544 260.23392l-95.86565 0l0 440.34488l315.24774 0l0 -440.13812z" fill-rule="evenodd"/><path stroke="#ffffff" stroke-width="25.328083989501312" stroke-linejoin="round" stroke-linecap="butt" d="m328.98544 260.23392l-95.86565 0l0 440.34488l315.24774 0l0 -440.13812z" fill-rule="evenodd"/></g></svg>