<svg version="1.1" viewBox="0.0 0.0 286.0 150.0" fill="none" stroke="none" stroke-linecap="square" stroke-miterlimit="10" xmlns:xlink="http://www.w3.org/1999/xlink" xmlns="http://www.w3.org/2000/svg"><clipPath id="p.0"><path d="m0 0l286.0 0l0 150.0l-286.0 0l0 -150.0z" clip-rule="nonzero"/></clipPath><g clip-path="url(#p.0)"><path fill="#004d99" d="m0 0l286.0 0l0 150.0l-286.0 0z" fill-rule="evenodd"/><path fill="#000000" fill-opacity="0.0" d="m81.29921 110.12336l123.40158 0l0 29.79528l-123.40158 0z" fill-rule="evenodd"/><path fill="#ffffff" d="m104.81012 124.97537q0 1.890625 -0.828125 3.390625q-0.828125 1.5 -2.09375 2.296875q-1.0625 0.6875 -2.3125 0.890625q-1.234375 0.1875 -2.640625 0.1875l-4.234375 0l0 -13.5625l4.203125 0q1.4375 0 2.671875 0.1875q1.25 0.171875 2.34375 0.875q1.34375 0.859375 2.109375 2.3125q0.78125 1.453125 0.78125 3.421875zm-3.5 -0.03125q0 -1.34375 -0.46875 -2.28125q-0.453125 -0.953125 -1.40625 -1.5q-0.6875 -0.375 -1.453125 -0.40625q-0.75 -0.046875 -1.8125 -0.046875l-0.0625 0l0 8.484375l0.0625 0q1.140625 0 1.921875 -0.03125q0.796875 -0.046875 1.515625 -0.484375q0.828125 -0.53125 1.265625 -1.453125q0.4375 -0.9375 0.4375 -2.28125zm17.863205 0.015625q0 3.296875 -1.765625 5.1875q-1.75 1.875 -4.8125 1.875q-3.0625 0 -4.8125 -1.90625q-1.75 -1.90625 -1.75 -5.15625q0 -3.265625 1.75 -5.15625q1.75 -1.90625 4.8125 -1.90625q3.0625 0 4.8125 1.890625q1.765625 1.890625 1.765625 5.171875zm-3.515625 0q0 -1.21875 -0.25 -2.0625q-0.25 -0.859375 -0.671875 -1.40625q-0.4375 -0.546875 -0.984375 -0.78125q-0.546875 -0.25 -1.140625 -0.25q-0.625 0 -1.140625 0.21875q-0.515625 0.21875 -0.984375 0.796875q-0.421875 0.53125 -0.6875 1.40625q-0.25 0.875 -0.25 2.078125q0 1.25 0.25 2.078125q0.25 0.828125 0.671875 1.375q0.4375 0.5625 0.984375 0.8125q0.5625 0.234375 1.15625 0.234375q0.59375 0 1.15625 -0.25q0.578125 -0.265625 0.984375 -0.8125q0.4375 -0.59375 0.671875 -1.375q0.234375 -0.796875 0.234375 -2.0625zm11.021927 7.0625q-2.734375 0 -4.203125 -1.3125q-1.46875 -1.328125 -1.46875 -3.875l0 -8.65625l3.40625 0l0 8.46875q0 1.40625 0.53125 2.09375q0.53125 0.6875 1.734375 0.6875q1.171875 0 1.71875 -0.65625q0.5625 -0.671875 0.5625 -2.125l0 -8.46875l3.40625 0l0 8.65625q0 2.5 -1.4375 3.84375q-1.4375 1.34375 -4.25 1.34375zm10.907669 -0.28125l0 -10.984375l-4.015625 0l0 -2.578125l11.421875 0l0 2.578125l-4.0 0l0 10.984375l-3.40625 0zm21.36081 0l-4.15625 0l-3.78125 -4.96875l-1.21875 0l0 4.96875l-3.390625 0l0 -13.5625l5.453125 0q1.125 0 1.96875 0.140625q0.84375 0.140625 1.546875 0.59375q0.734375 0.453125 1.15625 1.171875q0.421875 0.71875 0.421875 1.8125q0 1.5625 -0.703125 2.53125q-0.6875 0.96875 -1.875 1.546875l4.578125 5.765625zm-5.484375 -9.40625q0 -0.515625 -0.203125 -0.875q-0.1875 -0.375 -0.65625 -0.578125q-0.3125 -0.140625 -0.703125 -0.171875q-0.390625 -0.03125 -0.96875 -0.03125l-1.140625 0l0 3.640625l0.96875 0q0.71875 0 1.203125 -0.078125q0.5 -0.09375 0.84375 -0.375q0.328125 -0.25 0.484375 -0.609375q0.171875 -0.359375 0.171875 -0.921875zm13.233322 9.40625l-7.296875 0l0 -2.375l1.953125 0l0 -8.828125l-1.953125 0l0 -2.359375l7.296875 0l0 2.359375l-1.9375 0l0 8.828125l1.9375 0l0 2.375zm13.893402 0l-3.28125 0l-5.234375 -9.453125l0 9.453125l-3.109375 0l0 -13.5625l4.171875 0l4.328125 7.765625l0 -7.765625l3.125 0l0 13.5625zm1.2966614 0l4.578125 -13.5625l3.71875 0l4.578125 13.5625l-3.515625 0l-0.84375 -2.765625l-4.265625 0l-0.84375 2.765625l-3.40625 0zm7.765625 -5.234375l-1.375 -4.46875l-1.390625 4.46875l2.765625 0z" fill-rule="nonzero"/><path fill="#000000" fill-opacity="0.0" d="m160.2518 97.23121l7.0437927 5.949318l6.984543 -5.9364014l0 -50.395367l-14.042969 0z" fill-rule="evenodd"/><path stroke="#ffffff" stroke-width="3.0419947506561678" stroke-linejoin="round" stroke-linecap="butt" d="m160.2518 97.23121l7.0437927 5.949318l6.984543 -5.9364014l0 -50.395367l-14.042969 0z" fill-rule="evenodd"/><path fill="#000000" fill-opacity="0.0" d="m162.05186 95.91928l5.234253 5.5980225l5.1902313 -5.585869l0 -47.41961l-10.4353485 0z" fill-rule="evenodd"/><path stroke="#ffffff" stroke-width="3.0419947506561678" stroke-linejoin="round" stroke-linecap="butt" d="m162.05186 95.91928l5.234253 5.5980225l5.1902313 -5.585869l0 -47.41961l-10.4353485 0z" fill-rule="evenodd"/><path fill="#000000" fill-opacity="0.0" d="m163.2907 56.011887l7.9354706 0" fill-rule="evenodd"/><path stroke="#ffffff" stroke-width="3.0419947506561678" stroke-linejoin="round" stroke-linecap="butt" d="m163.2907 56.011887l7.9354706 0" fill-rule="evenodd"/><path fill="#000000" fill-opacity="0.0" d="m163.2907 57.599712l7.9354706 0" fill-rule="evenodd"/><path stroke="#ffffff" stroke-width="3.0419947506561678" stroke-linejoin="round" stroke-linecap="butt" d="m163.2907 57.599712l7.9354706 0" fill-rule="evenodd"/><path fill="#000000" fill-opacity="0.0" d="m124.21549 46.819473l-12.495628 0l0 56.33288l41.09105 0l0 -56.306423z" fill-rule="evenodd"/><path stroke="#ffffff" stroke-width="3.0419947506561678" stroke-linejoin="round" stroke-linecap="butt" d="m124.21549 46.819473l-12.495628 0l0 56.33288l41.09105 0l0 -56.306423z" fill-rule="evenodd"/><path fill="#000000" fill-opacity="0.0" d="m123.807465 47.432583l0 54.73367" fill-rule="evenodd"/><path stroke="#ffffff" stroke-width="3.0419947506561678" stroke-linejoin="round" stroke-linecap="butt" d="m123.807465 47.432583l0 54.73367" fill-rule="evenodd"/><path fill="#000000" fill-opacity="0.0" d="m125.47695 47.432583l0 54.73367" fill-rule="evenodd"/><path stroke="#ffffff" stroke-width="3.0419947506561678" stroke-linejoin="round" stroke-linecap="butt" d="m125.47695 47.432583l0 54.73367" fill-rule="evenodd"/><path fill="#000000" fill-opacity="0.0" d="m124.839294 48.571377l-11.528603 0l0 52.954983l37.91105 0l0 -52.930115z" fill-rule="evenodd"/><path stroke="#ffffff" stroke-width="3.0419947506561678" stroke-linejoin="round" stroke-linecap="butt" d="m124.839294 48.571377l-11.528603 0l0 52.954983l37.91105 0l0 -52.930115z" fill-rule="evenodd"/></g></svg>